# xmcd
#
# Track frame offsets:
#	150
#	8840
#	16325
#	28507
#	40285
#	49290
#	59392
#	66777
#	76202
#	87317
#	95500
#	104357
#	111952
#	121772
#
# Disc length: 1738 seconds
#
# Revision: 1
# Processed by: cddbd v1.5.1PL0 Copyright (c) Steve Scherf et al.
# Submitted via: audiograbber 1.83.01
#
DISCID=ae06c80e
DTITLE=Jim Reeves - Live In Tennessee
DYEAR=1993
DGENRE=Country
TTITLE0=Yonder Comes A Sucker
TTITLE1=Bimbo
TTITLE2=Four Walls
TTITLE3=Mexican JoE
TTITLE4=Billy Bayou
TTITLE5=He´ll Have To Go
TTITLE6=Blue Boy
TTITLE7=I´m Getting Better
TTITLE8=Am I Losing You?
TTITLE9=Waiting For A Train
TTITLE10=According To My Heart
TTITLE11=I Know One
TTITLE12=Softly and Tenderly
TTITLE13=(Gimme That) Old Time Religion
EXTD=
EXTT0=
EXTT1=
EXTT2=
EXTT3=
EXTT4=
EXTT5=
EXTT6=
EXTT7=
EXTT8=
EXTT9=
EXTT10=
EXTT11=
EXTT12=
EXTT13=
PLAYORDER=
